<?xml version="1.0" encoding="UTF-8"?>
<svg width="512px" height="512px" viewBox="0 0 512 512" version="1.1" xmlns="http://www.w3.org/2000/svg" xmlns:xlink="http://www.w3.org/1999/xlink">
    <!-- Generator: Sketch 43.2 (39069) - http://www.bohemiancoding.com/sketch -->
    <title>knowledge</title>
    <desc>Created with Sketch.</desc>
    <defs></defs>
    <g id="Page-1" stroke="none" stroke-width="1" fill="none" fill-rule="evenodd">
        <g id="knowledge" fill-rule="nonzero" fill="#FFFFFF">
            <path d="M313.902,68.794 C315.325,69.806 316.962,70.294 318.585,70.294 C321.112,70.294 323.599,69.113 325.176,66.899 C327.766,63.263 326.918,58.214 323.281,55.624 L322.405,55 C318.767,52.411 313.719,53.258 311.13,56.896 C308.54,60.532 309.388,65.581 313.025,68.171 L313.902,68.794 Z" id="Shape"></path>
            <path d="M257.468,102.225 C251.397,106.601 247.916,113.403 247.916,120.886 L247.916,193.857 C247.916,203.773 254.237,212.542 263.645,215.678 L342.947,242.111 C342.961,242.115 342.976,242.117 342.991,242.122 C343.27,242.213 343.557,242.271 343.844,242.331 C343.978,242.359 344.111,242.404 344.246,242.426 C344.395,242.45 344.547,242.448 344.698,242.463 C344.966,242.49 345.236,242.528 345.503,242.528 C345.935,242.528 346.363,242.491 346.784,242.423 C346.826,242.417 346.866,242.401 346.907,242.394 C347.284,242.327 347.656,242.24 348.018,242.121 C348.031,242.117 348.045,242.116 348.059,242.111 L427.362,215.678 C436.769,212.542 443.09,203.773 443.09,193.857 L443.09,120.886 C443.09,113.402 439.608,106.602 433.538,102.225 C427.467,97.849 419.913,96.699 412.815,99.064 L345.504,121.502 L278.193,99.064 C271.092,96.699 263.539,97.85 257.468,102.225 Z M353.586,135.849 L417.927,114.403 C420.033,113.7 422.278,114.041 424.082,115.342 C425.886,116.642 426.92,118.662 426.92,120.886 L426.92,193.857 C426.92,196.803 425.042,199.408 422.248,200.339 L353.586,223.226 L353.586,135.849 Z M337.418,223.226 L268.756,200.339 C265.962,199.408 264.084,196.802 264.085,193.857 L264.085,120.886 C264.085,118.662 265.119,116.642 266.922,115.342 C268.725,114.041 270.969,113.7 273.078,114.403 L337.418,135.85 L337.418,223.226 Z" id="Shape"></path>
            <path d="M355.053,58.41 C356.476,59.422 358.113,59.91 359.736,59.91 C362.263,59.91 364.75,58.729 366.327,56.515 C368.917,52.879 368.069,47.83 364.432,45.24 L363.555,44.615 C359.917,42.027 354.869,42.874 352.28,46.511 C349.69,50.147 350.538,55.196 354.175,57.786 L355.053,58.41 Z" id="Shape"></path>
            <path d="M336.287,84.745 C337.71,85.757 339.347,86.245 340.97,86.245 C343.497,86.245 345.984,85.064 347.561,82.85 C350.151,79.214 349.303,74.165 345.666,71.575 L344.789,70.95 C341.151,68.362 336.104,69.209 333.514,72.846 C330.924,76.482 331.772,81.531 335.409,84.121 L336.287,84.745 Z" id="Shape"></path>
            <path d="M246.299,280.253 L245.221,280.253 C240.756,280.253 237.137,283.871 237.137,288.337 C237.137,292.803 240.757,296.421 245.221,296.421 L246.299,296.421 C250.764,296.421 254.383,292.802 254.383,288.337 C254.383,283.871 250.764,280.253 246.299,280.253 Z" id="Shape"></path>
            <path d="M63.844,249.789 C33.545,224.595 16.169,187.572 16.169,148.21 C16.169,75.401 75.403,16.168 148.211,16.168 C197.626,16.168 242.525,43.413 265.384,87.273 C267.447,91.231 272.329,92.768 276.289,90.705 C280.248,88.642 281.785,83.76 279.722,79.8 C254.066,30.578 203.675,0 148.21,0 C66.487,0 0,66.488 0,148.21 C0,192.391 19.502,233.946 53.507,262.22 C55.017,263.476 56.85,264.088 58.672,264.088 C60.991,264.088 63.294,263.095 64.893,261.172 C67.746,257.741 67.277,252.645 63.844,249.789 Z" id="Shape"></path>
            <path d="M137.432,145.516 L138.51,145.516 C142.975,145.516 146.594,141.898 146.594,137.432 C146.594,132.966 142.974,129.348 138.51,129.348 L137.432,129.348 C132.967,129.348 129.348,132.967 129.348,137.432 C129.347,141.897 132.967,145.516 137.432,145.516 Z" id="Shape"></path>
            <path d="M313.744,329.187 C309.663,327.368 304.887,329.2 303.069,333.279 C285.317,373.094 245.687,398.821 202.106,398.821 C141.184,398.821 91.622,349.258 91.622,288.337 C91.622,266.839 97.798,246.003 109.485,228.079 C111.923,224.339 110.868,219.33 107.128,216.892 C103.39,214.455 98.38,215.508 95.94,219.248 C82.539,239.805 75.454,263.695 75.454,288.337 C75.454,358.174 132.27,414.99 202.107,414.99 C252.063,414.99 297.49,385.501 317.837,339.863 C319.654,335.785 317.822,331.005 313.744,329.187 Z" id="Shape"></path>
            <path d="M115.874,431.158 C93.585,431.158 75.453,449.29 75.453,471.579 C75.453,493.868 93.585,512 115.874,512 C138.163,512 156.295,493.868 156.295,471.579 C156.295,449.29 138.162,431.158 115.874,431.158 Z M115.874,495.832 C102.501,495.832 91.621,484.952 91.621,471.579 C91.621,458.206 102.5,447.326 115.874,447.326 C129.247,447.326 140.127,458.206 140.127,471.579 C140.127,484.952 129.247,495.832 115.874,495.832 Z" id="Shape"></path>
            <path d="M353.01,0 C324.365,0 296.28,7.704 271.794,22.282 C267.958,24.565 266.699,29.527 268.983,33.363 C271.267,37.2 276.228,38.459 280.065,36.174 C302.051,23.086 327.276,16.168 353.01,16.168 C431.762,16.168 495.831,80.237 495.831,158.989 C495.831,237.741 431.763,301.811 353.01,301.811 C327.899,301.811 303.207,295.206 281.605,282.71 C277.742,280.477 272.794,281.794 270.559,285.659 C268.323,289.524 269.645,294.47 273.509,296.705 C297.569,310.623 325.06,317.979 353.01,317.979 C440.677,317.979 512,246.657 512,158.99 C512,71.323 440.678,0 353.01,0 Z" id="Shape"></path>
            <path d="M246.299,312.589 L245.221,312.589 C240.756,312.589 237.137,316.207 237.137,320.673 C237.137,325.139 240.757,328.757 245.221,328.757 L246.299,328.757 C250.764,328.757 254.383,325.139 254.383,320.673 C254.383,316.208 250.764,312.589 246.299,312.589 Z" id="Shape"></path>
            <path d="M84.747,190.656 C92.145,198.052 101.861,201.752 111.578,201.752 C121.107,201.752 130.629,198.185 137.97,191.072 C145.31,198.185 154.834,201.752 164.362,201.752 C174.079,201.752 183.795,198.053 191.193,190.656 C205.845,176.004 205.977,152.259 191.609,137.432 C205.977,122.604 205.845,98.86 191.193,84.208 C176.541,69.557 152.797,69.425 137.97,83.792 C123.142,69.425 99.399,69.557 84.747,84.208 C70.095,98.86 69.963,122.605 84.331,137.432 C69.963,152.259 70.096,176.004 84.747,190.656 Z M96.181,179.223 C87.838,170.881 87.713,157.409 95.766,148.888 L126.516,179.639 C117.994,187.689 104.522,187.564 96.181,179.223 Z M179.762,179.222 C171.419,187.566 157.949,187.69 149.427,179.638 L180.177,148.887 C188.228,157.408 188.103,170.88 179.762,179.222 Z M179.76,95.641 C188.103,103.983 188.228,117.455 180.175,125.976 L149.425,95.225 C157.947,87.174 171.419,87.299 179.76,95.641 Z M168.766,137.432 L137.971,168.227 L107.176,137.432 L137.971,106.637 L168.766,137.432 Z M96.179,95.642 C100.425,91.396 106,89.274 111.577,89.274 C116.959,89.274 122.329,91.272 126.514,95.226 L95.764,125.977 C87.713,117.455 87.838,103.983 96.179,95.642 Z" id="Shape"></path>
            <path d="M264.084,245.221 C264.084,240.755 260.464,237.137 256,237.137 L224.604,237.137 C214.11,237.137 204.828,243.826 201.509,253.782 L176.584,328.557 C175.469,331.902 172.352,334.148 168.829,334.148 C165.777,334.148 163.002,332.469 161.587,329.766 L133.815,276.747 C131.743,272.792 126.857,271.266 122.902,273.338 C118.947,275.41 117.42,280.295 119.492,284.251 L147.264,337.27 C151.481,345.318 159.744,350.317 168.828,350.317 C179.322,350.317 188.604,343.628 191.923,333.672 L216.848,258.897 C217.963,255.552 221.08,253.306 224.603,253.306 L256,253.306 C260.465,253.305 264.084,249.687 264.084,245.221 Z" id="Shape"></path>
            <path d="M63.057,204.8 L61.979,204.8 C57.514,204.8 53.895,208.419 53.895,212.884 C53.895,217.349 57.515,220.968 61.979,220.968 L63.057,220.968 C67.522,220.968 71.141,217.349 71.141,212.884 C71.141,208.419 67.521,204.8 63.057,204.8 Z" id="Shape"></path>
            <path d="M160.067,264.084 C164.532,264.084 168.151,260.465 168.151,256 C168.151,251.534 164.531,247.916 160.067,247.916 L158.989,247.916 C154.524,247.916 150.905,251.535 150.905,256 C150.905,260.466 154.525,264.084 158.989,264.084 L160.067,264.084 Z" id="Shape"></path>
        </g>
    </g>
</svg>