<?xml version="1.0" encoding="UTF-8"?>
<svg width="330px" height="313px" viewBox="0 0 330 313" version="1.1" xmlns="http://www.w3.org/2000/svg" xmlns:xlink="http://www.w3.org/1999/xlink">
    <!-- Generator: Sketch 43.2 (39069) - http://www.bohemiancoding.com/sketch -->
    <title>Artboard</title>
    <desc>Created with Sketch.</desc>
    <defs></defs>
    <g id="Page-1" stroke="none" stroke-width="1" fill="none" fill-rule="evenodd">
        <g id="Artboard" stroke="#585858" stroke-width="1.1">
            <g id="microphone-icon" transform="translate(164.000000, 8.000000)">
                <path d="M43.45,16.0115385 L43.45,32.2115385 C43.45,41.1642918 36.1766037,48.4115385 27.1771481,48.4115385 L16.8228519,48.4115385 C7.84169031,48.4115385 0.55,41.1457894 0.55,32.2115385 L0.55,16.0115385 L43.45,16.0115385 Z" id="Rectangle-70"></path>
                <rect id="Rectangle-69" x="8.31470588" y="0.55" width="27.3705882" height="40.1307692" rx="5.5"></rect>
                <rect id="Rectangle-64" x="21.2558824" y="49.5115385" width="1.48823529" height="16.9384615"></rect>
                <rect id="Rectangle-65" x="8.31470588" y="64.9730769" width="27.3705882" height="1.47692308"></rect>
            </g>
            <g id="camera-icon" transform="translate(8.000000, 131.000000)">
                <path d="M58.1396552,17.1793478 L58.1396552,18.0402779 L58.9208377,17.6784016 L72.2343452,11.5110287 C72.9697371,11.1703645 73.45,11.4777648 73.45,12.2841449 L73.45,45.7158551 C73.45,46.5287633 72.9749151,46.8320342 72.2343452,46.4889713 L58.9208377,40.3215984 L58.1396552,39.9597221 L58.1396552,40.8206522 L58.1396552,55.7971554 C58.1396552,56.705927 57.3959224,57.45 56.4960652,57.45 L2.19359,57.45 C1.28489163,57.45 0.55,56.7129068 0.55,55.7971554 L0.55,2.20284462 C0.55,1.29407303 1.29373281,0.55 2.19359,0.55 L56.4960652,0.55 C57.4047635,0.55 58.1396552,1.28709319 58.1396552,2.20284462 L58.1396552,17.1793478 Z" id="Combined-Shape"></path>
                <ellipse id="Oval-60" cx="16.5862069" cy="16.3913043" rx="3.27758621" ry="3.2326087"></ellipse>
            </g>
            <g id="paper-icon" transform="translate(208.000000, 212.000000)">
                <g id="Group-3" transform="translate(0.000000, 5.153846)">
                    <path d="M3.09545455,31.3659856 C3.09545455,28.4547204 2.84411467,24.0920893 2.39751668,18.6587917 C2.26007718,16.9867069 2.10626552,15.2407218 1.93895856,13.4408583 C1.68626778,10.7224482 1.41554886,8.01494223 1.14482753,5.44397868 C1.05007116,4.54410437 0.962078349,3.72553413 0.883102728,3.00398198 C0.835697631,2.57087049 0.801818485,2.26622035 0.783719071,2.10574828 C0.689026549,1.24042016 1.31713288,0.55 2.20384033,0.55 L48.7052506,0.55 C49.5943673,0.55 50.2301156,1.25290069 50.142559,2.13406043 C50.1245367,2.30873998 50.0904043,2.64442249 50.042641,3.12181727 C49.9630634,3.9171946 49.8743986,4.81979536 49.7789179,5.81238217 C49.5061256,8.64824157 49.2333356,11.6370992 48.9787152,14.6411231 C48.8062423,16.6759666 48.6480311,18.6496082 48.5071742,20.5386163 C48.0631924,26.4927809 47.8136364,31.2919252 47.8136364,34.5267428 C47.8136364,37.0207077 48.0669352,40.8157007 48.5161778,45.5697056 C48.6481791,46.9665792 48.7951204,48.4238897 48.9544328,49.9257982 C49.2035942,52.2747542 49.4705251,54.6179834 49.7374588,56.8457361 C49.8308901,57.6254878 49.9176536,58.3351528 49.995528,58.9610019 C50.0422772,59.3367092 50.0756925,59.6011251 50.0935521,59.7405171 C50.2012249,60.6081344 49.588023,61.2961538 48.7052506,61.2961538 L2.20384033,61.2961538 C1.3138082,61.2961538 0.694006386,60.6022658 0.79300194,59.7134161 C0.81075973,59.5601532 0.844507465,59.2646687 0.891727312,58.8446246 C0.970392564,58.1448581 1.05803911,57.351059 1.15242234,56.478483 C1.42207711,53.985516 1.69172939,51.360618 1.94342577,48.7257588 C2.10922353,46.990121 2.26172229,45.3063788 2.39809795,43.6936883 C2.84427898,38.4174393 3.09545455,34.184523 3.09545455,31.3659856 Z" id="Rectangle-102"></path>
                </g>
                <g id="Group-3" transform="translate(5.090909, 0.000000)">
                    <path d="M1.21679373,6.14803719 C1.18843366,5.88711944 1.16746453,5.69340953 1.13415081,5.38498355 C1.10542142,5.11828012 1.10542142,5.11828012 1.09945079,5.06252376 C0.829764134,2.56316457 2.60940118,0.55 5.06747853,0.55 L45.8416124,0.55 C48.3076929,0.55 50.1007281,2.56392394 49.8587538,5.0617269 C49.8431228,5.21177782 49.8131365,5.50468051 49.7711816,5.92215076 C49.7012898,6.61760518 49.623419,7.40885381 49.5395636,8.28151722 C49.2999917,10.7746856 49.0604239,13.420861 48.8368123,16.1050723 C48.6529149,18.3125586 48.4877882,20.4522934 48.3461091,22.4906286 C48.0038759,27.4143324 47.8136364,31.516178 47.8136364,34.5267428 C47.8136364,36.8061944 47.9930868,39.9074775 48.3158316,43.6295358 C48.4492833,45.1685695 48.6047936,46.7839936 48.7779652,48.4504835 C48.988588,50.4773802 49.2142304,52.4755024 49.439879,54.3581334 C49.518864,55.017121 49.5922149,55.6146563 49.6580548,56.1398897 C49.6975892,56.4552738 49.7258565,56.6766388 49.7409794,56.793132 C50.0449362,59.2944106 48.2970117,61.2961538 45.8087469,61.2961538 L43.6627715,61.2961538 L1.21679373,6.14803719 Z" id="Rectangle-102"></path>
                </g>
                <rect id="Rectangle-106" x="13.2772727" y="18.5884615" width="19.2636364" height="1.47692308"></rect>
                <rect id="Rectangle-106" x="13.2772727" y="26.3192308" width="19.2636364" height="1.47692308"></rect>
                <rect id="Rectangle-106" x="13.2772727" y="34.05" width="19.2636364" height="1.47692308"></rect>
            </g>
            <path d="M87.4839337,34.849249 C87.4213367,34.875316 87.3591144,34.9013075 87.2972666,34.9272234 C87.2924766,34.9292306 87.2876888,34.9312373 87.2829032,34.9332436 C85.3019032,35.7637434 83.7059223,36.5166467 82.4926283,37.1938341 C81.1892461,37.9213032 80.1660306,38.6482444 79.421835,39.3800367 C78.6854492,40.1163951 77.9576983,41.131577 77.2296298,42.4299658 C76.5506296,43.6408494 75.7853173,45.2646875 74.9315301,47.3042268 C74.9300417,47.3077825 74.9285529,47.3113395 74.9270639,47.3148978 C74.9013663,47.3763059 74.8755887,47.4380903 74.8497309,47.5002512 C74.8284454,47.5514203 74.8071056,47.6028446 74.7857115,47.6545239 L74.9333458,47.5558564 L75.0148356,47.5013948 L75.2938875,47.3148978 L74.9360517,47.3148978 L74.9270639,47.3148978 L74.5710103,47.3148978 L74.8497309,47.5002512 L74.9333458,47.5558564 L75.0782172,47.6521981 C75.0570349,47.6016865 75.0359077,47.5514187 75.0148356,47.5013948 C74.9884882,47.438848 74.962227,47.3766823 74.9360517,47.3148978 C74.9345442,47.3113395 74.9330371,47.3077825 74.9315301,47.3042268 C74.0670461,45.2643608 73.2964416,43.6405009 72.6176369,42.4299658 C71.8903029,41.1328869 71.1695255,40.1189119 70.4496542,39.3866291 C69.6988672,38.6482444 68.6756517,37.9213032 67.3722695,37.1938341 C66.1586124,36.5164441 64.5571029,35.7634316 62.5653226,34.9328457 C62.5602176,34.9307169 62.5551101,34.9285876 62.55,34.9264578 C62.488213,34.9007057 62.4260513,34.8748792 62.3635146,34.848978 C62.3124441,34.8278259 62.2611235,34.806624 62.2095529,34.7853724 L62.3077675,34.9320725 L62.3640004,35.0160657 L62.55,35.2938875 L62.55,34.9391997 L62.55,34.9264578 L62.55,34.5710103 L62.3635146,34.848978 L62.3077675,34.9320725 L62.2085729,35.0799281 C62.2606373,35.0585903 62.3124463,35.0373025 62.3639998,35.0160649 C62.4263737,34.9903698 62.4883737,34.9647481 62.55,34.9391997 C62.5551101,34.9370812 62.5602176,34.9349632 62.5653226,34.9328457 C64.5683305,34.102017 66.1756873,33.3487642 67.3899006,32.6710637 C68.6944889,31.9429214 69.7129116,31.2150398 70.4463445,30.4816068 C71.1695255,29.7459858 71.8903029,28.7320108 72.6176369,27.434932 C73.2964416,26.2243968 74.0670461,24.600537 74.9315301,22.560671 C74.9330371,22.5571153 74.9345442,22.5535583 74.9360517,22.55 C74.962227,22.4882155 74.9884882,22.4260498 75.0148356,22.363503 C75.0359077,22.313479 75.0570349,22.2632113 75.0782172,22.2126997 L74.9333458,22.3090414 L74.8497309,22.3646466 L74.5710103,22.55 L74.9270639,22.55 L74.9360517,22.55 L75.2938875,22.55 L75.0148356,22.363503 L74.9333458,22.3090414 L74.7857115,22.2103739 C74.8071056,22.2620532 74.8284454,22.3134774 74.8497309,22.3646466 C74.8755887,22.4268074 74.9013663,22.4885919 74.9270639,22.55 C74.9285529,22.5535583 74.9300417,22.5571153 74.9315301,22.560671 C75.7853173,24.6002102 76.5506296,26.2240483 77.2296298,27.434932 C77.9576983,28.7333208 78.6854492,29.7485027 79.4185533,30.4816068 C80.1379106,31.2133956 81.1515515,31.942237 82.457366,32.6710637 C83.6717731,33.3488723 85.2794493,34.1022574 87.2829032,34.9332436 C87.2876888,34.9352285 87.2924766,34.9372139 87.2972666,34.9391997 C87.3587919,34.9647063 87.4206897,34.9902859 87.4829602,35.0159386 C87.534615,35.0372181 87.5865261,35.058548 87.6386937,35.0799281 L87.539244,34.9316922 L87.4839337,34.849249 L87.2972666,34.5710103 L87.2972666,34.9272234 L87.2972666,34.9391997 L87.2972666,35.2938875 L87.4829602,35.0159386 L87.539244,34.9316922 L87.6367252,34.7857809 C87.5855491,34.8069865 87.5346186,34.8281425 87.4839337,34.849249 Z" id="✦"></path>
            <path d="M319.483934,118.849249 C319.421337,118.875316 319.359114,118.901307 319.297267,118.927223 C319.292477,118.929231 319.287689,118.931237 319.282903,118.933244 C317.301903,119.763743 315.705922,120.516647 314.492628,121.193834 C313.189246,121.921303 312.166031,122.648244 311.421835,123.380037 C310.685449,124.116395 309.957698,125.131577 309.22963,126.429966 C308.55063,127.640849 307.785317,129.264688 306.93153,131.304227 C306.930042,131.307783 306.928553,131.31134 306.927064,131.314898 C306.901366,131.376306 306.875589,131.43809 306.849731,131.500251 C306.828445,131.55142 306.807106,131.602845 306.785712,131.654524 L306.933346,131.555856 L307.014836,131.501395 L307.293887,131.314898 L306.936052,131.314898 L306.927064,131.314898 L306.57101,131.314898 L306.849731,131.500251 L306.933346,131.555856 L307.078217,131.652198 C307.057035,131.601686 307.035908,131.551419 307.014836,131.501395 C306.988488,131.438848 306.962227,131.376682 306.936052,131.314898 C306.934544,131.31134 306.933037,131.307783 306.93153,131.304227 C306.067046,129.264361 305.296442,127.640501 304.617637,126.429966 C303.890303,125.132887 303.169525,124.118912 302.449654,123.386629 C301.698867,122.648244 300.675652,121.921303 299.372269,121.193834 C298.158612,120.516444 296.557103,119.763432 294.565323,118.932846 C294.560218,118.930717 294.55511,118.928588 294.55,118.926458 C294.488213,118.900706 294.426051,118.874879 294.363515,118.848978 C294.312444,118.827826 294.261124,118.806624 294.209553,118.785372 L294.307768,118.932072 L294.364,119.016066 L294.55,119.293887 L294.55,118.9392 L294.55,118.926458 L294.55,118.57101 L294.363515,118.848978 L294.307768,118.932072 L294.208573,119.079928 C294.260637,119.05859 294.312446,119.037303 294.364,119.016065 C294.426374,118.99037 294.488374,118.964748 294.55,118.9392 C294.55511,118.937081 294.560218,118.934963 294.565323,118.932846 C296.56833,118.102017 298.175687,117.348764 299.389901,116.671064 C300.694489,115.942921 301.712912,115.21504 302.446345,114.481607 C303.169525,113.745986 303.890303,112.732011 304.617637,111.434932 C305.296442,110.224397 306.067046,108.600537 306.93153,106.560671 C306.933037,106.557115 306.934544,106.553558 306.936052,106.55 C306.962227,106.488215 306.988488,106.42605 307.014836,106.363503 C307.035908,106.313479 307.057035,106.263211 307.078217,106.2127 L306.933346,106.309041 L306.849731,106.364647 L306.57101,106.55 L306.927064,106.55 L306.936052,106.55 L307.293887,106.55 L307.014836,106.363503 L306.933346,106.309041 L306.785712,106.210374 C306.807106,106.262053 306.828445,106.313477 306.849731,106.364647 C306.875589,106.426807 306.901366,106.488592 306.927064,106.55 C306.928553,106.553558 306.930042,106.557115 306.93153,106.560671 C307.785317,108.60021 308.55063,110.224048 309.22963,111.434932 C309.957698,112.733321 310.685449,113.748503 311.418553,114.481607 C312.137911,115.213396 313.151552,115.942237 314.457366,116.671064 C315.671773,117.348872 317.279449,118.102257 319.282903,118.933244 C319.287689,118.935228 319.292477,118.937214 319.297267,118.9392 C319.358792,118.964706 319.42069,118.990286 319.48296,119.015939 C319.534615,119.037218 319.586526,119.058548 319.638694,119.079928 L319.539244,118.931692 L319.483934,118.849249 L319.297267,118.57101 L319.297267,118.927223 L319.297267,118.9392 L319.297267,119.293887 L319.48296,119.015939 L319.539244,118.931692 L319.636725,118.785781 C319.585549,118.806986 319.534619,118.828142 319.483934,118.849249 Z" id="✦"></path>
            <path d="M94.4839337,292.849249 C94.4213367,292.875316 94.3591144,292.901307 94.2972666,292.927223 C94.2924766,292.929231 94.2876888,292.931237 94.2829032,292.933244 C92.3019032,293.763743 90.7059223,294.516647 89.4926283,295.193834 C88.1892461,295.921303 87.1660306,296.648244 86.421835,297.380037 C85.6854492,298.116395 84.9576983,299.131577 84.2296298,300.429966 C83.5506296,301.640849 82.7853173,303.264688 81.9315301,305.304227 C81.9300417,305.307783 81.9285529,305.31134 81.9270639,305.314898 C81.9013663,305.376306 81.8755887,305.43809 81.8497309,305.500251 C81.8284454,305.55142 81.8071056,305.602845 81.7857115,305.654524 L81.9333458,305.555856 L82.0148363,305.501394 L82.2938875,305.314898 L81.9360517,305.314898 L81.9270639,305.314898 L81.5710103,305.314898 L81.8497309,305.500251 L81.9333458,305.555856 L82.0782172,305.652198 C82.0570349,305.601686 82.0359077,305.551419 82.0148356,305.501395 C81.9884882,305.438848 81.962227,305.376682 81.9360517,305.314898 C81.9345442,305.31134 81.9330371,305.307783 81.9315301,305.304227 C81.0670461,303.264361 80.2964416,301.640501 79.6176369,300.429966 C78.8903029,299.132887 78.1695255,298.118912 77.4496542,297.386629 C76.6988672,296.648244 75.6756517,295.921303 74.3722695,295.193834 C73.1586124,294.516444 71.5571029,293.763432 69.5653226,292.932846 C69.5602176,292.930717 69.5551101,292.928588 69.55,292.926458 C69.488213,292.900706 69.4260513,292.874879 69.3635146,292.848978 C69.3124441,292.827826 69.2611235,292.806624 69.2095529,292.785372 L69.3077675,292.932072 L69.3639998,293.016065 L69.55,293.293887 L69.55,292.9392 L69.55,292.926458 L69.55,292.57101 L69.3635146,292.848978 L69.3077675,292.932072 L69.2085729,293.079928 C69.2606373,293.05859 69.3124463,293.037303 69.3639998,293.016065 C69.4263737,292.99037 69.4883737,292.964748 69.55,292.9392 C69.5551101,292.937081 69.5602176,292.934963 69.5653226,292.932846 C71.5683305,292.102017 73.1756873,291.348764 74.3899006,290.671064 C75.6944889,289.942921 76.7129116,289.21504 77.4463445,288.481607 C78.1695255,287.745986 78.8903029,286.732011 79.6176369,285.434932 C80.2964416,284.224397 81.0670461,282.600537 81.9315301,280.560671 C81.9330371,280.557115 81.9345442,280.553558 81.9360517,280.55 C81.962227,280.488215 81.9884882,280.42605 82.0148356,280.363503 C82.0359077,280.313479 82.0570349,280.263211 82.0782172,280.2127 L81.9333458,280.309041 L81.84973,280.364647 L81.5710103,280.55 L81.9270639,280.55 L81.9360517,280.55 L82.2938875,280.55 L82.0148356,280.363503 L81.9333458,280.309041 L81.7857115,280.210374 C81.8071056,280.262053 81.8284454,280.313477 81.8497309,280.364647 C81.8755887,280.426807 81.9013663,280.488592 81.9270639,280.55 C81.9285529,280.553558 81.9300417,280.557115 81.9315301,280.560671 C82.7853173,282.60021 83.5506296,284.224048 84.2296298,285.434932 C84.9576983,286.733321 85.6854492,287.748503 86.4185533,288.481607 C87.1379106,289.213396 88.1515515,289.942237 89.457366,290.671064 C90.6717731,291.348872 92.2794493,292.102257 94.2829032,292.933244 C94.2876888,292.935228 94.2924766,292.937214 94.2972666,292.9392 C94.3587919,292.964706 94.4206897,292.990286 94.4829602,293.015939 C94.534615,293.037218 94.5865261,293.058548 94.6386937,293.079928 L94.539244,292.931692 L94.4839337,292.849249 L94.2972666,292.57101 L94.2972666,292.927223 L94.2972666,292.9392 L94.2972666,293.293887 L94.4829602,293.015939 L94.539244,292.931692 L94.6367252,292.785781 C94.5855491,292.806986 94.5346186,292.828142 94.4839337,292.849249 Z" id="✦"></path>
        </g>
    </g>
</svg>